<mxfile host="Electron" modified="2024-01-12T20:29:21.641Z" agent="Mozilla/5.0 (Windows NT 10.0; Win64; x64) AppleWebKit/537.36 (KHTML, like Gecko) draw.io/22.1.18 Chrome/120.0.6099.199 Electron/28.1.2 Safari/537.36" etag="zQa79_U6sraHMOFtx-2o" version="22.1.18" type="device">
  <diagram id="C5RBs43oDa-KdzZeNtuy" name="Page-1">
    <mxGraphModel dx="2073" dy="616" grid="1" gridSize="10" guides="1" tooltips="1" connect="1" arrows="1" fold="1" page="1" pageScale="1" pageWidth="827" pageHeight="1169" math="0" shadow="0">
      <root>
        <mxCell id="WIyWlLk6GJQsqaUBKTNV-0" />
        <mxCell id="WIyWlLk6GJQsqaUBKTNV-1" parent="WIyWlLk6GJQsqaUBKTNV-0" />
        <mxCell id="rTOffD_aDObaBKE_b3Iy-1" value="" style="edgeStyle=none;curved=1;rounded=0;orthogonalLoop=1;jettySize=auto;html=1;endArrow=open;startSize=14;endSize=14;sourcePerimeterSpacing=8;targetPerimeterSpacing=8;" edge="1" parent="WIyWlLk6GJQsqaUBKTNV-1" source="WIyWlLk6GJQsqaUBKTNV-3" target="rTOffD_aDObaBKE_b3Iy-0">
          <mxGeometry relative="1" as="geometry" />
        </mxCell>
        <mxCell id="WIyWlLk6GJQsqaUBKTNV-3" value="Damage mob" style="rounded=1;whiteSpace=wrap;html=1;fontSize=12;glass=0;strokeWidth=1;shadow=0;" parent="WIyWlLk6GJQsqaUBKTNV-1" vertex="1">
          <mxGeometry x="480" width="120" height="40" as="geometry" />
        </mxCell>
        <mxCell id="6LJn7xBKOS65IEItwGag-13" value="" style="edgeStyle=none;curved=1;rounded=1;orthogonalLoop=1;jettySize=auto;html=1;endArrow=open;startSize=14;endSize=14;sourcePerimeterSpacing=8;targetPerimeterSpacing=8;" parent="WIyWlLk6GJQsqaUBKTNV-1" source="6LJn7xBKOS65IEItwGag-7" target="6LJn7xBKOS65IEItwGag-12" edge="1">
          <mxGeometry relative="1" as="geometry" />
        </mxCell>
        <mxCell id="6LJn7xBKOS65IEItwGag-7" value="get damage*10" style="rounded=1;whiteSpace=wrap;html=1;fontSize=12;glass=0;strokeWidth=1;shadow=0;" parent="WIyWlLk6GJQsqaUBKTNV-1" vertex="1">
          <mxGeometry x="160" y="170" width="120" height="40" as="geometry" />
        </mxCell>
        <mxCell id="6LJn7xBKOS65IEItwGag-19" value="" style="edgeStyle=none;curved=1;rounded=1;orthogonalLoop=1;jettySize=auto;html=1;endArrow=open;startSize=14;endSize=14;sourcePerimeterSpacing=8;targetPerimeterSpacing=8;" parent="WIyWlLk6GJQsqaUBKTNV-1" source="6LJn7xBKOS65IEItwGag-12" target="6LJn7xBKOS65IEItwGag-18" edge="1">
          <mxGeometry relative="1" as="geometry" />
        </mxCell>
        <mxCell id="6LJn7xBKOS65IEItwGag-12" value="get crit chance*10" style="rounded=1;whiteSpace=wrap;html=1;fontSize=12;glass=0;strokeWidth=1;shadow=0;" parent="WIyWlLk6GJQsqaUBKTNV-1" vertex="1">
          <mxGeometry x="160" y="270" width="120" height="40" as="geometry" />
        </mxCell>
        <mxCell id="6LJn7xBKOS65IEItwGag-21" value="" style="edgeStyle=none;curved=1;rounded=1;orthogonalLoop=1;jettySize=auto;html=1;endArrow=open;startSize=14;endSize=14;sourcePerimeterSpacing=8;targetPerimeterSpacing=8;" parent="WIyWlLk6GJQsqaUBKTNV-1" source="6LJn7xBKOS65IEItwGag-18" target="6LJn7xBKOS65IEItwGag-20" edge="1">
          <mxGeometry relative="1" as="geometry" />
        </mxCell>
        <mxCell id="6LJn7xBKOS65IEItwGag-18" value="random num 0-1000" style="whiteSpace=wrap;html=1;rounded=1;glass=0;strokeWidth=1;shadow=0;" parent="WIyWlLk6GJQsqaUBKTNV-1" vertex="1">
          <mxGeometry x="160" y="360" width="120" height="60" as="geometry" />
        </mxCell>
        <mxCell id="6LJn7xBKOS65IEItwGag-23" value="yes" style="edgeStyle=none;curved=1;rounded=1;orthogonalLoop=1;jettySize=auto;html=1;endArrow=open;startSize=14;endSize=14;sourcePerimeterSpacing=8;targetPerimeterSpacing=8;" parent="WIyWlLk6GJQsqaUBKTNV-1" source="6LJn7xBKOS65IEItwGag-20" target="6LJn7xBKOS65IEItwGag-22" edge="1">
          <mxGeometry relative="1" as="geometry" />
        </mxCell>
        <mxCell id="6LJn7xBKOS65IEItwGag-20" value="num&amp;lt; crit chance?" style="rhombus;whiteSpace=wrap;html=1;rounded=1;glass=0;strokeWidth=1;shadow=0;" parent="WIyWlLk6GJQsqaUBKTNV-1" vertex="1">
          <mxGeometry x="180" y="470" width="80" height="80" as="geometry" />
        </mxCell>
        <mxCell id="6LJn7xBKOS65IEItwGag-26" value="" style="edgeStyle=none;curved=1;rounded=1;orthogonalLoop=1;jettySize=auto;html=1;endArrow=open;startSize=14;endSize=14;sourcePerimeterSpacing=8;targetPerimeterSpacing=8;" parent="WIyWlLk6GJQsqaUBKTNV-1" source="6LJn7xBKOS65IEItwGag-22" target="6LJn7xBKOS65IEItwGag-25" edge="1">
          <mxGeometry relative="1" as="geometry" />
        </mxCell>
        <mxCell id="6LJn7xBKOS65IEItwGag-22" value="get crit damage*10" style="whiteSpace=wrap;html=1;rounded=1;glass=0;strokeWidth=1;shadow=0;" parent="WIyWlLk6GJQsqaUBKTNV-1" vertex="1">
          <mxGeometry x="360" y="480" width="120" height="60" as="geometry" />
        </mxCell>
        <mxCell id="6LJn7xBKOS65IEItwGag-28" value="" style="edgeStyle=none;curved=1;rounded=1;orthogonalLoop=1;jettySize=auto;html=1;endArrow=open;startSize=14;endSize=14;sourcePerimeterSpacing=8;targetPerimeterSpacing=8;" parent="WIyWlLk6GJQsqaUBKTNV-1" source="6LJn7xBKOS65IEItwGag-25" target="6LJn7xBKOS65IEItwGag-27" edge="1">
          <mxGeometry relative="1" as="geometry" />
        </mxCell>
        <mxCell id="6LJn7xBKOS65IEItwGag-25" value="damage = damage + damage*crit damage/1000&amp;nbsp;" style="whiteSpace=wrap;html=1;rounded=1;glass=0;strokeWidth=1;shadow=0;" parent="WIyWlLk6GJQsqaUBKTNV-1" vertex="1">
          <mxGeometry x="360" y="600" width="120" height="60" as="geometry" />
        </mxCell>
        <mxCell id="6LJn7xBKOS65IEItwGag-30" value="yes" style="edgeStyle=none;curved=1;rounded=1;orthogonalLoop=1;jettySize=auto;html=1;endArrow=open;startSize=14;endSize=14;sourcePerimeterSpacing=8;targetPerimeterSpacing=8;" parent="WIyWlLk6GJQsqaUBKTNV-1" source="6LJn7xBKOS65IEItwGag-27" target="6LJn7xBKOS65IEItwGag-29" edge="1">
          <mxGeometry relative="1" as="geometry" />
        </mxCell>
        <mxCell id="6LJn7xBKOS65IEItwGag-34" value="no" style="edgeStyle=none;curved=1;rounded=1;orthogonalLoop=1;jettySize=auto;html=1;endArrow=open;startSize=14;endSize=14;sourcePerimeterSpacing=8;targetPerimeterSpacing=8;" parent="WIyWlLk6GJQsqaUBKTNV-1" source="6LJn7xBKOS65IEItwGag-27" target="6LJn7xBKOS65IEItwGag-33" edge="1">
          <mxGeometry relative="1" as="geometry">
            <Array as="points" />
          </mxGeometry>
        </mxCell>
        <mxCell id="6LJn7xBKOS65IEItwGag-27" value="weapon has element and right rarity?" style="rhombus;whiteSpace=wrap;html=1;rounded=1;glass=0;strokeWidth=1;shadow=0;" parent="WIyWlLk6GJQsqaUBKTNV-1" vertex="1">
          <mxGeometry x="370" y="710" width="100" height="100" as="geometry" />
        </mxCell>
        <mxCell id="6LJn7xBKOS65IEItwGag-36" value="" style="edgeStyle=none;curved=1;rounded=1;orthogonalLoop=1;jettySize=auto;html=1;endArrow=open;startSize=14;endSize=14;sourcePerimeterSpacing=8;targetPerimeterSpacing=8;" parent="WIyWlLk6GJQsqaUBKTNV-1" source="6LJn7xBKOS65IEItwGag-29" target="6LJn7xBKOS65IEItwGag-33" edge="1">
          <mxGeometry relative="1" as="geometry" />
        </mxCell>
        <mxCell id="6LJn7xBKOS65IEItwGag-29" value="elemental damage = base damage *elemental mult/100" style="whiteSpace=wrap;html=1;rounded=1;glass=0;strokeWidth=1;shadow=0;" parent="WIyWlLk6GJQsqaUBKTNV-1" vertex="1">
          <mxGeometry x="560" y="730" width="120" height="60" as="geometry" />
        </mxCell>
        <mxCell id="6LJn7xBKOS65IEItwGag-38" value="" style="edgeStyle=none;curved=1;rounded=1;orthogonalLoop=1;jettySize=auto;html=1;endArrow=open;startSize=14;endSize=14;sourcePerimeterSpacing=8;targetPerimeterSpacing=8;" parent="WIyWlLk6GJQsqaUBKTNV-1" source="6LJn7xBKOS65IEItwGag-33" target="6LJn7xBKOS65IEItwGag-37" edge="1">
          <mxGeometry relative="1" as="geometry" />
        </mxCell>
        <mxCell id="6LJn7xBKOS65IEItwGag-33" value="get health difference&lt;br&gt;(value from 0 to 10, maybe more with bows)" style="whiteSpace=wrap;html=1;rounded=1;glass=0;strokeWidth=1;shadow=0;" parent="WIyWlLk6GJQsqaUBKTNV-1" vertex="1">
          <mxGeometry x="460" y="860" width="120" height="60" as="geometry" />
        </mxCell>
        <mxCell id="6LJn7xBKOS65IEItwGag-40" value="" style="edgeStyle=none;curved=1;rounded=1;orthogonalLoop=1;jettySize=auto;html=1;endArrow=open;startSize=14;endSize=14;sourcePerimeterSpacing=8;targetPerimeterSpacing=8;" parent="WIyWlLk6GJQsqaUBKTNV-1" source="6LJn7xBKOS65IEItwGag-37" target="6LJn7xBKOS65IEItwGag-39" edge="1">
          <mxGeometry relative="1" as="geometry" />
        </mxCell>
        <mxCell id="6LJn7xBKOS65IEItwGag-37" value="store health difference as attack multiplier&amp;nbsp;" style="whiteSpace=wrap;html=1;rounded=1;glass=0;strokeWidth=1;shadow=0;" parent="WIyWlLk6GJQsqaUBKTNV-1" vertex="1">
          <mxGeometry x="460" y="960" width="120" height="60" as="geometry" />
        </mxCell>
        <mxCell id="6LJn7xBKOS65IEItwGag-42" value="" style="edgeStyle=none;curved=1;rounded=1;orthogonalLoop=1;jettySize=auto;html=1;endArrow=open;startSize=14;endSize=14;sourcePerimeterSpacing=8;targetPerimeterSpacing=8;" parent="WIyWlLk6GJQsqaUBKTNV-1" source="6LJn7xBKOS65IEItwGag-39" target="6LJn7xBKOS65IEItwGag-41" edge="1">
          <mxGeometry relative="1" as="geometry" />
        </mxCell>
        <mxCell id="6LJn7xBKOS65IEItwGag-47" value="" style="edgeStyle=none;curved=1;rounded=1;orthogonalLoop=1;jettySize=auto;html=1;endArrow=open;startSize=14;endSize=14;sourcePerimeterSpacing=8;targetPerimeterSpacing=8;" parent="WIyWlLk6GJQsqaUBKTNV-1" source="6LJn7xBKOS65IEItwGag-39" target="6LJn7xBKOS65IEItwGag-46" edge="1">
          <mxGeometry relative="1" as="geometry" />
        </mxCell>
        <mxCell id="6LJn7xBKOS65IEItwGag-39" value="base damage = base damage * attack multiplier /10" style="whiteSpace=wrap;html=1;rounded=1;glass=0;strokeWidth=1;shadow=0;" parent="WIyWlLk6GJQsqaUBKTNV-1" vertex="1">
          <mxGeometry x="460" y="1070" width="120" height="60" as="geometry" />
        </mxCell>
        <mxCell id="6LJn7xBKOS65IEItwGag-74" value="" style="edgeStyle=none;curved=1;rounded=1;orthogonalLoop=1;jettySize=auto;html=1;endArrow=open;startSize=14;endSize=14;sourcePerimeterSpacing=8;targetPerimeterSpacing=8;" parent="WIyWlLk6GJQsqaUBKTNV-1" source="6LJn7xBKOS65IEItwGag-41" target="6LJn7xBKOS65IEItwGag-72" edge="1">
          <mxGeometry relative="1" as="geometry" />
        </mxCell>
        <mxCell id="6LJn7xBKOS65IEItwGag-41" value="health - base damage" style="whiteSpace=wrap;html=1;rounded=1;glass=0;strokeWidth=1;shadow=0;" parent="WIyWlLk6GJQsqaUBKTNV-1" vertex="1">
          <mxGeometry x="270" y="1070" width="120" height="60" as="geometry" />
        </mxCell>
        <mxCell id="6LJn7xBKOS65IEItwGag-51" value="yes" style="edgeStyle=none;curved=1;rounded=1;orthogonalLoop=1;jettySize=auto;html=1;endArrow=open;startSize=14;endSize=14;sourcePerimeterSpacing=8;targetPerimeterSpacing=8;" parent="WIyWlLk6GJQsqaUBKTNV-1" source="6LJn7xBKOS65IEItwGag-46" target="6LJn7xBKOS65IEItwGag-50" edge="1">
          <mxGeometry relative="1" as="geometry" />
        </mxCell>
        <mxCell id="6LJn7xBKOS65IEItwGag-46" value="elemental attack?" style="rhombus;whiteSpace=wrap;html=1;rounded=1;glass=0;strokeWidth=1;shadow=0;" parent="WIyWlLk6GJQsqaUBKTNV-1" vertex="1">
          <mxGeometry x="480" y="1220" width="80" height="80" as="geometry" />
        </mxCell>
        <mxCell id="6LJn7xBKOS65IEItwGag-54" value="no" style="edgeStyle=none;curved=1;rounded=1;orthogonalLoop=1;jettySize=auto;html=1;endArrow=open;startSize=14;endSize=14;sourcePerimeterSpacing=8;targetPerimeterSpacing=8;" parent="WIyWlLk6GJQsqaUBKTNV-1" source="6LJn7xBKOS65IEItwGag-50" target="6LJn7xBKOS65IEItwGag-53" edge="1">
          <mxGeometry relative="1" as="geometry" />
        </mxCell>
        <mxCell id="6LJn7xBKOS65IEItwGag-57" value="yes" style="edgeStyle=none;curved=1;rounded=1;orthogonalLoop=1;jettySize=auto;html=1;endArrow=open;startSize=14;endSize=14;sourcePerimeterSpacing=8;targetPerimeterSpacing=8;" parent="WIyWlLk6GJQsqaUBKTNV-1" source="6LJn7xBKOS65IEItwGag-50" target="6LJn7xBKOS65IEItwGag-56" edge="1">
          <mxGeometry relative="1" as="geometry" />
        </mxCell>
        <mxCell id="6LJn7xBKOS65IEItwGag-50" value="mob has element?" style="rhombus;whiteSpace=wrap;html=1;rounded=1;glass=0;strokeWidth=1;shadow=0;" parent="WIyWlLk6GJQsqaUBKTNV-1" vertex="1">
          <mxGeometry x="330" y="1220" width="80" height="80" as="geometry" />
        </mxCell>
        <mxCell id="6LJn7xBKOS65IEItwGag-73" value="" style="edgeStyle=none;curved=1;rounded=1;orthogonalLoop=1;jettySize=auto;html=1;endArrow=open;startSize=14;endSize=14;sourcePerimeterSpacing=8;targetPerimeterSpacing=8;" parent="WIyWlLk6GJQsqaUBKTNV-1" source="6LJn7xBKOS65IEItwGag-53" target="6LJn7xBKOS65IEItwGag-72" edge="1">
          <mxGeometry relative="1" as="geometry" />
        </mxCell>
        <mxCell id="6LJn7xBKOS65IEItwGag-53" value="health - element damage" style="whiteSpace=wrap;html=1;rounded=1;glass=0;strokeWidth=1;shadow=0;" parent="WIyWlLk6GJQsqaUBKTNV-1" vertex="1">
          <mxGeometry x="110" y="1010" width="120" height="60" as="geometry" />
        </mxCell>
        <mxCell id="6LJn7xBKOS65IEItwGag-61" value="no" style="edgeStyle=none;curved=1;rounded=1;orthogonalLoop=1;jettySize=auto;html=1;endArrow=open;startSize=14;endSize=14;sourcePerimeterSpacing=8;targetPerimeterSpacing=8;" parent="WIyWlLk6GJQsqaUBKTNV-1" source="6LJn7xBKOS65IEItwGag-56" target="6LJn7xBKOS65IEItwGag-60" edge="1">
          <mxGeometry relative="1" as="geometry" />
        </mxCell>
        <mxCell id="6LJn7xBKOS65IEItwGag-67" value="yes" style="edgeStyle=none;curved=1;rounded=1;orthogonalLoop=1;jettySize=auto;html=1;endArrow=open;startSize=14;endSize=14;sourcePerimeterSpacing=8;targetPerimeterSpacing=8;" parent="WIyWlLk6GJQsqaUBKTNV-1" source="6LJn7xBKOS65IEItwGag-56" target="6LJn7xBKOS65IEItwGag-66" edge="1">
          <mxGeometry relative="1" as="geometry" />
        </mxCell>
        <mxCell id="6LJn7xBKOS65IEItwGag-56" value="is attack element weak to mob element?" style="rhombus;whiteSpace=wrap;html=1;rounded=1;glass=0;strokeWidth=1;shadow=0;" parent="WIyWlLk6GJQsqaUBKTNV-1" vertex="1">
          <mxGeometry x="130" y="1220" width="80" height="80" as="geometry" />
        </mxCell>
        <mxCell id="6LJn7xBKOS65IEItwGag-64" value="" style="edgeStyle=none;curved=1;rounded=1;orthogonalLoop=1;jettySize=auto;html=1;endArrow=open;startSize=14;endSize=14;sourcePerimeterSpacing=8;targetPerimeterSpacing=8;" parent="WIyWlLk6GJQsqaUBKTNV-1" source="6LJn7xBKOS65IEItwGag-60" target="6LJn7xBKOS65IEItwGag-53" edge="1">
          <mxGeometry relative="1" as="geometry" />
        </mxCell>
        <mxCell id="6LJn7xBKOS65IEItwGag-60" value="element damage = element damage + element damage/2" style="whiteSpace=wrap;html=1;rounded=1;glass=0;strokeWidth=1;shadow=0;" parent="WIyWlLk6GJQsqaUBKTNV-1" vertex="1">
          <mxGeometry x="-70" y="1230" width="120" height="60" as="geometry" />
        </mxCell>
        <mxCell id="6LJn7xBKOS65IEItwGag-68" value="" style="edgeStyle=none;curved=1;rounded=1;orthogonalLoop=1;jettySize=auto;html=1;endArrow=open;startSize=14;endSize=14;sourcePerimeterSpacing=8;targetPerimeterSpacing=8;" parent="WIyWlLk6GJQsqaUBKTNV-1" source="6LJn7xBKOS65IEItwGag-66" target="6LJn7xBKOS65IEItwGag-53" edge="1">
          <mxGeometry relative="1" as="geometry" />
        </mxCell>
        <mxCell id="6LJn7xBKOS65IEItwGag-66" value="element damage = 0" style="whiteSpace=wrap;html=1;rounded=1;glass=0;strokeWidth=1;shadow=0;" parent="WIyWlLk6GJQsqaUBKTNV-1" vertex="1">
          <mxGeometry x="110" y="1109" width="120" height="60" as="geometry" />
        </mxCell>
        <mxCell id="6LJn7xBKOS65IEItwGag-76" value="yes" style="edgeStyle=none;curved=1;rounded=1;orthogonalLoop=1;jettySize=auto;html=1;endArrow=open;startSize=14;endSize=14;sourcePerimeterSpacing=8;targetPerimeterSpacing=8;" parent="WIyWlLk6GJQsqaUBKTNV-1" source="6LJn7xBKOS65IEItwGag-72" target="6LJn7xBKOS65IEItwGag-75" edge="1">
          <mxGeometry relative="1" as="geometry" />
        </mxCell>
        <mxCell id="6LJn7xBKOS65IEItwGag-80" value="no" style="edgeStyle=none;curved=1;rounded=1;orthogonalLoop=1;jettySize=auto;html=1;endArrow=open;startSize=14;endSize=14;sourcePerimeterSpacing=8;targetPerimeterSpacing=8;" parent="WIyWlLk6GJQsqaUBKTNV-1" source="6LJn7xBKOS65IEItwGag-72" target="6LJn7xBKOS65IEItwGag-79" edge="1">
          <mxGeometry relative="1" as="geometry" />
        </mxCell>
        <mxCell id="6LJn7xBKOS65IEItwGag-72" value="health &amp;gt; 0?" style="rhombus;whiteSpace=wrap;html=1;rounded=1;glass=0;strokeWidth=1;shadow=0;" parent="WIyWlLk6GJQsqaUBKTNV-1" vertex="1">
          <mxGeometry x="220" y="840" width="80" height="80" as="geometry" />
        </mxCell>
        <mxCell id="6LJn7xBKOS65IEItwGag-75" value="display damage indicator" style="whiteSpace=wrap;html=1;rounded=1;glass=0;strokeWidth=1;shadow=0;" parent="WIyWlLk6GJQsqaUBKTNV-1" vertex="1">
          <mxGeometry x="20" y="850" width="120" height="60" as="geometry" />
        </mxCell>
        <mxCell id="6LJn7xBKOS65IEItwGag-79" value="display death indicator and kill" style="whiteSpace=wrap;html=1;rounded=1;glass=0;strokeWidth=1;shadow=0;" parent="WIyWlLk6GJQsqaUBKTNV-1" vertex="1">
          <mxGeometry x="200" y="690" width="120" height="60" as="geometry" />
        </mxCell>
        <mxCell id="rTOffD_aDObaBKE_b3Iy-4" value="" style="edgeStyle=none;curved=1;rounded=0;orthogonalLoop=1;jettySize=auto;html=1;endArrow=open;startSize=14;endSize=14;sourcePerimeterSpacing=8;targetPerimeterSpacing=8;" edge="1" parent="WIyWlLk6GJQsqaUBKTNV-1" source="rTOffD_aDObaBKE_b3Iy-0" target="rTOffD_aDObaBKE_b3Iy-3">
          <mxGeometry relative="1" as="geometry" />
        </mxCell>
        <mxCell id="rTOffD_aDObaBKE_b3Iy-0" value="remove stamina" style="whiteSpace=wrap;html=1;rounded=1;glass=0;strokeWidth=1;shadow=0;" vertex="1" parent="WIyWlLk6GJQsqaUBKTNV-1">
          <mxGeometry x="480" y="90" width="120" height="60" as="geometry" />
        </mxCell>
        <mxCell id="rTOffD_aDObaBKE_b3Iy-5" value="yes" style="edgeStyle=none;curved=1;rounded=0;orthogonalLoop=1;jettySize=auto;html=1;entryX=0.5;entryY=0;entryDx=0;entryDy=0;endArrow=open;startSize=14;endSize=14;sourcePerimeterSpacing=8;targetPerimeterSpacing=8;" edge="1" parent="WIyWlLk6GJQsqaUBKTNV-1" source="rTOffD_aDObaBKE_b3Iy-3" target="6LJn7xBKOS65IEItwGag-7">
          <mxGeometry relative="1" as="geometry" />
        </mxCell>
        <mxCell id="rTOffD_aDObaBKE_b3Iy-7" value="no" style="edgeStyle=none;curved=1;rounded=0;orthogonalLoop=1;jettySize=auto;html=1;endArrow=open;startSize=14;endSize=14;sourcePerimeterSpacing=8;targetPerimeterSpacing=8;" edge="1" parent="WIyWlLk6GJQsqaUBKTNV-1" source="rTOffD_aDObaBKE_b3Iy-3" target="rTOffD_aDObaBKE_b3Iy-6">
          <mxGeometry relative="1" as="geometry" />
        </mxCell>
        <mxCell id="rTOffD_aDObaBKE_b3Iy-3" value="is stamina&amp;nbsp; &amp;gt;0?" style="rhombus;whiteSpace=wrap;html=1;rounded=1;glass=0;strokeWidth=1;shadow=0;" vertex="1" parent="WIyWlLk6GJQsqaUBKTNV-1">
          <mxGeometry x="320" y="80" width="80" height="80" as="geometry" />
        </mxCell>
        <mxCell id="rTOffD_aDObaBKE_b3Iy-8" style="edgeStyle=none;curved=1;rounded=0;orthogonalLoop=1;jettySize=auto;html=1;endArrow=open;startSize=14;endSize=14;sourcePerimeterSpacing=8;targetPerimeterSpacing=8;entryX=1;entryY=0.5;entryDx=0;entryDy=0;" edge="1" parent="WIyWlLk6GJQsqaUBKTNV-1" source="rTOffD_aDObaBKE_b3Iy-6" target="6LJn7xBKOS65IEItwGag-12">
          <mxGeometry relative="1" as="geometry">
            <mxPoint x="420" y="300" as="targetPoint" />
          </mxGeometry>
        </mxCell>
        <mxCell id="rTOffD_aDObaBKE_b3Iy-13" style="edgeStyle=none;curved=1;rounded=0;orthogonalLoop=1;jettySize=auto;html=1;endArrow=open;startSize=14;endSize=14;sourcePerimeterSpacing=8;targetPerimeterSpacing=8;" edge="1" parent="WIyWlLk6GJQsqaUBKTNV-1" source="rTOffD_aDObaBKE_b3Iy-6" target="rTOffD_aDObaBKE_b3Iy-11">
          <mxGeometry relative="1" as="geometry" />
        </mxCell>
        <mxCell id="rTOffD_aDObaBKE_b3Iy-6" value="get damage" style="whiteSpace=wrap;html=1;rounded=1;glass=0;strokeWidth=1;shadow=0;" vertex="1" parent="WIyWlLk6GJQsqaUBKTNV-1">
          <mxGeometry x="360" y="200" width="120" height="60" as="geometry" />
        </mxCell>
        <mxCell id="rTOffD_aDObaBKE_b3Iy-11" value="half current movement speed" style="whiteSpace=wrap;html=1;rounded=1;glass=0;strokeWidth=1;shadow=0;" vertex="1" parent="WIyWlLk6GJQsqaUBKTNV-1">
          <mxGeometry x="560" y="210" width="120" height="60" as="geometry" />
        </mxCell>
      </root>
    </mxGraphModel>
  </diagram>
</mxfile>
